<?xml version="1.0" encoding="utf-8"?>
<!-- Generator: Adobe Illustrator 26.0.3, SVG Export Plug-In . SVG Version: 6.00 Build 0)  -->
<svg version="1.1" id="Layer_1" xmlns="http://www.w3.org/2000/svg" xmlns:xlink="http://www.w3.org/1999/xlink" x="0px" y="0px"
	 viewBox="0 0 73 73" style="enable-background:new 0 0 73 73;" xml:space="preserve">
<style type="text/css">
	.st0{fill:#FE71AD;}
	.st1{fill:#FFFFFF;stroke:#FFFFFF;stroke-width:0.5;stroke-miterlimit:10;}
</style>
<circle class="st0" cx="36.5" cy="36.5" r="36.5"/>
<g>
	<g>
		<path class="st1" d="M15.9,57.8c-3,0-5.2-0.3-5.4-0.4c-0.3,0-0.5-0.2-0.7-0.4s-0.2-0.5-0.2-0.8c0-0.2,0.8-4.8,3.6-9.4
			c0.3-0.5,0.9-0.6,1.4-0.3c0.5,0.3,0.6,0.9,0.3,1.4c-1.8,3-2.8,6.1-3.1,7.6c2,0.2,6.4,0.5,10.4-0.4c0.5-0.1,1.1,0.2,1.2,0.8
			c0.1,0.5-0.2,1.1-0.7,1.2C20.4,57.7,18,57.8,15.9,57.8z"/>
	</g>
	<g>
		<path class="st1" d="M58.2,47.8c-0.4,0-0.8-0.3-0.9-0.7c-0.2-0.5,0.1-1.1,0.6-1.3c4.8-1.8,8.4-5.5,9.8-7.1
			c-1.7-1.1-5.5-3.3-9.5-4.3c-0.5-0.1-0.9-0.7-0.7-1.2c0.1-0.5,0.7-0.9,1.2-0.7c5.7,1.4,10.9,5.1,11.1,5.2c0.2,0.2,0.4,0.4,0.4,0.7
			s0,0.5-0.2,0.8c-0.2,0.3-4.6,6.2-11.4,8.7C58.5,47.8,58.3,47.8,58.2,47.8z"/>
	</g>
	<g>
		<path class="st1" d="M32.7,60.4c-1.4,0-2.9-0.2-4.3-0.6c-5.7-1.7-9.7-6.3-9.9-11.2c0-0.6,0.4-1,1-1c0.6,0,1,0.4,1,1
			c0.1,4.1,3.6,7.9,8.4,9.3c5.9,1.7,11.7-0.7,13.1-5.3c0.9-3.2-0.6-6.9-3.8-9.4c-0.4-0.3-0.5-1-0.2-1.4c0.3-0.4,1-0.5,1.4-0.2
			c3.9,3,5.7,7.5,4.5,11.5C42.6,57.6,38,60.4,32.7,60.4z"/>
	</g>
	<g>
		<path class="st1" d="M46.9,57.8c-1.3,0-2.7-0.2-4.1-0.6c-0.6-0.2-1.2-0.4-1.7-0.6c-0.5-0.2-0.7-0.8-0.5-1.3
			c0.2-0.5,0.8-0.7,1.3-0.5c0.5,0.2,1,0.4,1.5,0.5c5.7,1.7,11.5-0.9,12.9-5.7c1.4-4.8-2.1-10.1-7.8-11.8c-3.4-1-7.1-1-9.8,0
			c-0.5,0.2-1.1-0.1-1.3-0.6c-0.2-0.5,0.1-1.1,0.6-1.3c3.1-1.1,7.3-1.1,11.1,0c6.8,2,10.9,8.4,9.2,14.3
			C56.8,54.9,52.2,57.8,46.9,57.8z"/>
	</g>
	<g>
		<path class="st1" d="M19.6,49.4c-1.4,0-2.9-0.2-4.4-0.8C7.8,46,3.5,39.8,5.2,34.1c1.1-3.9,4.7-6.7,9.4-7.4
			c0.5-0.1,1.1,0.3,1.1,0.8s-0.3,1.1-0.8,1.1C11,29.3,8,31.5,7.1,34.6c-1.4,4.6,2.4,9.8,8.8,12.1c6.9,2.4,13.1-2.8,14.9-4.4
			c0.4-0.4,1-0.4,1.4,0c0.4,0.4,0.4,1,0,1.4C30.5,45.3,25.6,49.4,19.6,49.4z"/>
	</g>
	<g>
		<path class="st1" d="M28.8,40.1c-0.1,0-0.2,0-0.2,0c-6.2-1.5-16.4-6.6-14.7-16.2c0.4-2.3,1.8-4.2,4-5.5c3.3-2,8-2.5,12.4-1.2
			c4.2,1.2,7.6,3.9,9.4,7.3c0.3,0.5,0.1,1.1-0.4,1.3c-0.5,0.3-1.1,0.1-1.3-0.4c-1.5-2.9-4.5-5.2-8.2-6.3c-3.8-1.1-8-0.7-10.8,1
			c-1.2,0.7-2.7,2.1-3,4.2c-1.4,8.2,7.6,12.6,13.2,14c0.5,0.1,0.9,0.7,0.7,1.2C29.7,39.8,29.3,40.1,28.8,40.1z"/>
	</g>
	<g>
		<path class="st1" d="M55,41.8c-0.3,0-0.6-0.1-0.8-0.4C53.9,41,54,40.4,54.4,40c1.1-0.9,1.9-2.1,2.3-3.4c0.6-2.1,0.1-4.5-1.4-6.6
			c-1.6-2.2-4.1-3.9-7.1-4.8c-3-0.9-6-0.8-8.5,0.2c-2.4,1-4.1,2.7-4.8,4.8c-0.6,2.1-0.8,3.9-0.5,5.6c0.1,0.5-0.3,1.1-0.8,1.1
			c-0.5,0.1-1.1-0.3-1.1-0.8c-0.3-2-0.1-4.1,0.5-6.5c0.8-2.7,2.9-4.9,6-6.1c2.9-1.2,6.4-1.3,9.8-0.3c3.4,1,6.3,2.9,8.1,5.5
			c1.9,2.6,2.5,5.6,1.7,8.4c-0.5,1.7-1.5,3.2-2.9,4.3C55.5,41.7,55.2,41.8,55,41.8z"/>
	</g>
	<g>
		<g>
			<path class="st1" d="M34.3,40.5c-0.4,0-0.8-0.2-0.9-0.6c-0.1-0.1-5.8-14.9,12.6-24.4c0.5-0.3,1.1-0.1,1.3,0.4
				c0.3,0.5,0.1,1.1-0.4,1.3C30.1,26,35.1,39,35.2,39.2c0.2,0.5,0,1.1-0.5,1.3C34.5,40.5,34.4,40.5,34.3,40.5z"/>
		</g>
		<g>
			<path class="st1" d="M39.6,17.5c-0.1,0-0.2,0-0.3,0c-1.2-0.1-2.1-1.2-2-2.3c0-0.6,0.3-1.1,0.7-1.4c0.4-0.4,1.1-0.6,1.7-0.5
				c1.2,0.1,2.1,1.2,2,2.3l0,0c0,0.6-0.3,1.1-0.7,1.4C40.6,17.4,40.1,17.5,39.6,17.5z"/>
		</g>
		<g>
			<path class="st1" d="M44.4,15.1c-0.1,0-0.1,0-0.2,0c-1-0.1-1.8-1-1.7-2c0-0.5,0.3-0.9,0.6-1.2c0.4-0.3,0.9-0.5,1.4-0.4
				c1,0.1,1.8,1,1.7,2c0,0,0,0,0,0c0,0.5-0.3,0.9-0.6,1.2C45.3,14.9,44.9,15.1,44.4,15.1z"/>
		</g>
		<g>
			<path class="st1" d="M47,22.5c-0.1,0-0.1,0-0.2,0c-1-0.1-1.7-1-1.7-1.9c0-0.5,0.2-0.9,0.6-1.2c0.4-0.3,0.9-0.5,1.4-0.4
				c1,0.1,1.7,0.9,1.7,1.9c0,0.5-0.2,0.9-0.6,1.2C47.8,22.4,47.4,22.5,47,22.5z"/>
		</g>
		<g>
			<path class="st1" d="M49.5,14.7c-0.1,0-0.1,0-0.2,0c-1-0.1-1.7-1-1.7-1.9c0-0.5,0.2-0.9,0.6-1.2c0.4-0.3,0.9-0.5,1.4-0.4
				c1,0.1,1.7,1,1.7,1.9c0,0.5-0.2,0.9-0.6,1.2C50.3,14.6,49.9,14.7,49.5,14.7z"/>
		</g>
		<g>
			<path class="st1" d="M49.8,18.7c-0.1,0-0.1,0-0.2,0c-0.8-0.1-1.5-0.8-1.4-1.7c0-0.4,0.2-0.8,0.5-1.1c0.3-0.3,0.8-0.4,1.2-0.3
				c0.8,0.1,1.5,0.8,1.4,1.7c0,0.4-0.2,0.8-0.5,1.1C50.5,18.5,50.1,18.7,49.8,18.7z"/>
		</g>
	</g>
	<g>
		<g>
			<path class="st1" d="M33.8,47.3c-0.3,0-0.6-0.2-0.8-0.4c-0.3-0.5-0.2-1.1,0.3-1.4c0.6-0.4,1-1.6,1-2c0.1-0.5,0.6-0.9,1.1-0.8
				c0.5,0.1,0.9,0.6,0.8,1.1c0,0.2-0.4,2.4-1.9,3.4C34.2,47.2,34,47.3,33.8,47.3z"/>
		</g>
		<g>
			<path class="st1" d="M43,42.6c-0.4,0-0.8-0.3-0.9-0.7c-0.4-1.2-2.2-1.2-2.2-1.2c-0.6,0-1-0.4-1-1c0-0.6,0.4-1,1-1
				c1.2-0.1,3.5,0.4,4.2,2.5c0.2,0.5-0.1,1.1-0.6,1.3C43.3,42.6,43.1,42.6,43,42.6z"/>
		</g>
		<g>
			<path class="st1" d="M27.3,42.7c-0.7,0-1.8-0.1-2.8-0.4c-0.5-0.2-0.8-0.8-0.6-1.3c0.2-0.5,0.8-0.8,1.3-0.6
				c1.2,0.4,2.7,0.3,2.7,0.3c0.5-0.1,1,0.3,1.1,0.9c0.1,0.5-0.3,1-0.9,1.1C28,42.7,27.7,42.7,27.3,42.7z"/>
		</g>
		<g>
			<path class="st1" d="M30.1,37.1c-0.2,0-0.4-0.1-0.6-0.2c-0.6-0.5-1.7-1.7-1.6-3.6c0-0.6,0.5-1,1-1c0.6,0,1,0.5,1,1
				c-0.1,1.2,0.8,1.8,0.8,1.8c0.5,0.3,0.6,0.9,0.2,1.4C30.8,36.9,30.5,37.1,30.1,37.1z"/>
		</g>
		<g>
			<path class="st1" d="M36.4,35.2c-0.2,0-0.4,0-0.5-0.1c-0.5-0.3-0.6-0.9-0.3-1.4c0-0.1,1.2-2,3.6-2c0,0,0,0,0,0c0.5,0,1,0.4,1,1
				c0,0.6-0.4,1-1,1c-1.2,0-1.8,1-1.9,1C37.1,35.1,36.8,35.2,36.4,35.2z"/>
		</g>
	</g>
</g>
</svg>
