<?xml version="1.0" encoding="utf-8"?>
<!-- Generator: Adobe Illustrator 26.0.3, SVG Export Plug-In . SVG Version: 6.00 Build 0)  -->
<svg version="1.1" id="Layer_1" xmlns="http://www.w3.org/2000/svg" xmlns:xlink="http://www.w3.org/1999/xlink" x="0px" y="0px"
	 viewBox="0 0 100 100" style="enable-background:new 0 0 100 100;" xml:space="preserve">
<style type="text/css">
	.st0{fill:#D7D7D7;}
</style>
<path class="st0" d="M99,41.6c0.4-1.7,0.5-3.4,0.5-5C99.5,21.9,87.6,10,72.9,10c-9.8,0-18.3,5.3-22.9,13.1
	c-4.6-7.7-13.1-12.9-22.8-12.9c-14,0-25.5,10.9-26.5,24.7c-0.1,0.6-0.2,1.1-0.2,1.7c-0.1,2.5,0.4,5.1,1.2,7.7c0.5,1.6,1.1,3,1.8,4.5
	c6,12.7,18.7,24.8,18.7,24.8L50,100l27.8-26.3c0,0,12.4-11.8,18.5-24.3C97.6,46.9,98.5,44.3,99,41.6z"/>
</svg>
