<?xml version="1.0" encoding="utf-8"?>
<!-- Generator: Adobe Illustrator 26.0.3, SVG Export Plug-In . SVG Version: 6.00 Build 0)  -->
<svg version="1.1" id="Layer_1" xmlns="http://www.w3.org/2000/svg" xmlns:xlink="http://www.w3.org/1999/xlink" x="0px" y="0px"
	 viewBox="0 0 26 19" style="enable-background:new 0 0 26 19;" xml:space="preserve">
<style type="text/css">
	.st0{fill:#FE9BC5;}
</style>
<desc>Created with Sketch.</desc>
<g>
	<path class="st0" d="M0,17.1C0,12,0,7,0,1.9c0-0.1,0.1-0.2,0.1-0.3C0.4,0.7,1.3,0,2.4,0c7.1,0,14.1,0,21.2,0C24.9,0,26,1.1,26,2.4
		c0,4.8,0,9.5,0,14.3c0,1.3-1.1,2.4-2.4,2.4c-7.1,0-14.1,0-21.2,0c-0.5,0-0.9-0.1-1.3-0.4C0.5,18.3,0.2,17.7,0,17.1z M24.3,3.5
		c-0.1,0-0.2,0.1-0.2,0.1c-3.5,2.9-6.9,5.8-10.4,8.8c-0.5,0.5-0.9,0.5-1.4,0C8.8,9.4,5.4,6.5,1.9,3.6C1.8,3.5,1.8,3.5,1.6,3.5
		c0,0.1,0,0.2,0,0.3c0,4.2,0,8.4,0,12.6c0,0.8,0.3,1,1.1,1c6.9,0,13.7,0,20.6,0c0.8,0,1.1-0.3,1.1-1c0-4.2,0-8.4,0-12.6
		C24.3,3.7,24.3,3.6,24.3,3.5z M13,1.6c-3.4,0-6.9,0-10.3,0c-0.1,0-0.2,0-0.3,0c-0.1,0-0.1,0.1-0.1,0.1c0,0,0.1,0.1,0.2,0.1
		c2.6,2.2,5.3,4.4,7.9,6.6c0.8,0.7,1.6,1.4,2.5,2.1c0.1,0.1,0.3,0.1,0.4,0c0,0,0.1-0.1,0.2-0.1c3.4-2.8,6.7-5.7,10.1-8.5
		c0.1-0.1,0.3-0.1,0.2-0.3c0-0.1-0.2-0.1-0.4-0.1C19.9,1.6,16.4,1.6,13,1.6z"/>
</g>
</svg>
