<?xml version="1.0" encoding="utf-8"?>
<!-- Generator: Adobe Illustrator 26.0.3, SVG Export Plug-In . SVG Version: 6.00 Build 0)  -->
<svg version="1.1" id="Layer_1" xmlns="http://www.w3.org/2000/svg" xmlns:xlink="http://www.w3.org/1999/xlink" x="0px" y="0px"
	 viewBox="0 0 16 26" style="enable-background:new 0 0 16 26;" xml:space="preserve">
<style type="text/css">
	.st0{fill:#FE9BC5;}
</style>
<desc>Created with Sketch.</desc>
<g>
	<g>
		<path class="st0" d="M2.3,26c-0.8-0.2-1.5-0.6-1.9-1.4C0.1,24.2,0,23.7,0,23.2C0,16.4,0,9.6,0,2.8C0,1.2,1.3,0,2.8,0
			c2.9,0,7.5,0,10.4,0C14.8,0,16,1.2,16,2.8c0,1.1,0,2.2,0,3.4c0,5.6,0,11.2,0,16.8c0,0.8-0.2,1.5-0.7,2.1c-0.4,0.5-1,0.7-1.6,0.9
			C10.4,26,5.5,26,2.3,26z M1.5,12.9c0,2.9,0,5.8,0,8.7c0,0.4,0,0.4,0.4,0.4c3.6,0,8.9,0,12.5,0c0.4,0,0.4,0,0.4-0.4
			c0-5.8,0-11.5,0-17.3c0-0.4,0-0.4-0.4-0.4c-3.6,0-8.9,0-12.5,0c-0.4,0-0.4,0-0.4,0.4C1.5,7.1,1.5,10,1.5,12.9z M8,22.8
			c-0.7,0-1.2,0.5-1.2,1.2c0,0.6,0.5,1.2,1.2,1.2c0.7,0,1.2-0.5,1.2-1.2C9.1,23.3,8.6,22.8,8,22.8z M8,2.4c0.4,0,0.7,0,1.1,0
			c0.1,0,0.2,0,0.3,0c0.2-0.1,0.3-0.2,0.3-0.3c0-0.2-0.1-0.3-0.3-0.4c-0.1,0-0.2,0-0.3,0c-0.7,0-1.4,0-2.2,0c-0.1,0-0.2,0-0.3,0.1
			C6.5,1.8,6.4,1.9,6.4,2c0,0.2,0.1,0.3,0.2,0.3c0.1,0,0.2,0.1,0.3,0.1C7.3,2.4,7.7,2.4,8,2.4z M5.5,1.7C5.3,1.7,5.2,1.8,5.1,2
			c0,0.2,0.2,0.4,0.4,0.4c0.2,0,0.4-0.2,0.4-0.3C5.9,1.9,5.7,1.7,5.5,1.7z"/>
	</g>
</g>
</svg>
